<svg width="600" height="400" viewBox="0 0 600 400" xmlns="http://www.w3.org/2000/svg">
  <!-- Uterus (Center) -->
  <path d="M220,120 C220,120 220,180 300,240 C380,180 380,120 380,120 C380,80 340,60 300,60 C260,60 220,80 220,120 Z" fill="none" stroke="white" stroke-width="6"/>
  <text x="265" y="160" fill="white" font-family="Arial" font-weight="bold" font-size="24">Uterus</text>
  
  <!-- Fallopian Tube (Left) -->
  <path d="M220,120 C180,120 120,80 60,110 C40,120 40,150 40,150" fill="none" stroke="#facc15" stroke-width="8" stroke-linecap="round"/>
  <circle cx="20" cy="160" r="15" fill="none" stroke="#facc15" stroke-width="4"/> <!-- Ovary (Left) -->
  
  <!-- Fallopian Tube (Right) -->
  <path d="M380,120 C420,120 480,80 540,110 C560,120 560,150 560,150" fill="none" stroke="#facc15" stroke-width="8" stroke-linecap="round"/>
  <circle cx="580" cy="160" r="15" fill="none" stroke="#facc15" stroke-width="4"/> <!-- Ovary (Right) -->

  <!-- Label Indicators -->
  <line x1="500" y1="90" x2="520" y2="50" stroke="#facc15" stroke-width="3"/>
  <text x="470" y="40" fill="#facc15" font-family="Arial" font-weight="bold" font-size="28">TUBE</text>
  
  <line x1="300" y1="240" x2="300" y2="300" stroke="white" stroke-width="3"/>
  <text x="240" y="340" fill="white" font-family="Arial" font-weight="bold" font-size="28">UTERUS</text>
</svg>